REM DIRINDEX 1\2,1\3
REM DIRNAME cjc102,folder01,folder02
TITLE ""
FILE "CD1Track20.mp3" MP3
  TRACK 01 AUDIO
    TITLE "0:"
    INDEX 01 00:00:00
  TRACK 02 AUDIO
    TITLE "2:cjc102_0782"
    INDEX 01 00:00:25
  TRACK 03 AUDIO
    TITLE "0:"
    INDEX 01 00:01:19
  TRACK 04 AUDIO
    TITLE "3:cjc102_0783"
    INDEX 01 00:01:22
  TRACK 05 AUDIO
    TITLE "0:"
    INDEX 01 00:02:51
  TRACK 06 AUDIO
    TITLE "3:cjc102_0784"
    INDEX 01 00:03:00
  TRACK 07 AUDIO
    TITLE "0:"
    INDEX 01 00:07:54
  TRACK 08 AUDIO
    TITLE "2:cjc102_0785"
    INDEX 01 00:07:58
  TRACK 09 AUDIO
    TITLE "0:"
    INDEX 01 00:08:66
  TRACK 10 AUDIO
    TITLE "3:cjc102_0786"
    INDEX 01 00:09:71
  TRACK 11 AUDIO
    TITLE "0:"
    INDEX 01 00:10:63
  TRACK 12 AUDIO
    TITLE "2:cjc102_0787"
    INDEX 01 00:11:11
  TRACK 13 AUDIO
    TITLE "0:"
    INDEX 01 00:12:14
  TRACK 14 AUDIO
    TITLE "3:cjc102_0788"
    INDEX 01 00:12:73
  TRACK 15 AUDIO
    TITLE "0:"
    INDEX 01 00:13:51
  TRACK 16 AUDIO
    TITLE "2:cjc102_0789"
    INDEX 01 00:14:00
  TRACK 17 AUDIO
    TITLE "0:"
    INDEX 01 00:15:03
  TRACK 18 AUDIO
    TITLE "3:cjc102_0790"
    INDEX 01 00:15:52
  TRACK 19 AUDIO
    TITLE "0:"
    INDEX 01 00:16:49
  TRACK 20 AUDIO
    TITLE "2:cjc102_0791"
    INDEX 01 00:16:57
  TRACK 21 AUDIO
    TITLE "0:"
    INDEX 01 00:17:53
  TRACK 22 AUDIO
    TITLE "3:cjc102_0792"
    INDEX 01 00:18:25
  TRACK 23 AUDIO
    TITLE "0:"
    INDEX 01 00:19:16
  TRACK 24 AUDIO
    TITLE "2:cjc102_0793"
    INDEX 01 00:19:30
  TRACK 25 AUDIO
    TITLE "0:"
    INDEX 01 00:20:43
  TRACK 26 AUDIO
    TITLE "3:cjc102_0794"
    INDEX 01 00:21:29
  TRACK 27 AUDIO
    TITLE "0:"
    INDEX 01 00:22:11
  TRACK 28 AUDIO
    TITLE "2:cjc102_0795"
    INDEX 01 00:22:32
  TRACK 29 AUDIO
    TITLE "0:"
    INDEX 01 00:23:36
  TRACK 30 AUDIO
    TITLE "3:cjc102_0796"
    INDEX 01 00:24:14
  TRACK 31 AUDIO
    TITLE "0:"
    INDEX 01 00:25:09
  TRACK 32 AUDIO
    TITLE "2:cjc102_0797"
    INDEX 01 00:25:25
  TRACK 33 AUDIO
    TITLE "0:"
    INDEX 01 00:26:42
  TRACK 34 AUDIO
    TITLE "3:cjc102_0798"
    INDEX 01 00:27:20
  TRACK 35 AUDIO
    TITLE "0:"
    INDEX 01 00:28:13
  TRACK 36 AUDIO
    TITLE "2:cjc102_0799"
    INDEX 01 00:28:29
  TRACK 37 AUDIO
    TITLE "0:"
    INDEX 01 00:29:66
  TRACK 38 AUDIO
    TITLE "3:cjc102_0800"
    INDEX 01 00:30:36
  TRACK 39 AUDIO
    TITLE "0:"
    INDEX 01 00:31:33
  TRACK 40 AUDIO
    TITLE "2:cjc102_0801"
    INDEX 01 00:31:59
  TRACK 41 AUDIO
    TITLE "0:"
    INDEX 01 00:32:66
  TRACK 42 AUDIO
    TITLE "3:cjc102_0802"
    INDEX 01 00:33:54
  TRACK 43 AUDIO
    TITLE "0:"
    INDEX 01 00:34:42
  TRACK 44 AUDIO
    TITLE "2:cjc102_0803"
    INDEX 01 00:34:65
  TRACK 45 AUDIO
    TITLE "0:"
    INDEX 01 00:35:72
  TRACK 46 AUDIO
    TITLE "3:cjc102_0804"
    INDEX 01 00:36:56
  TRACK 47 AUDIO
    TITLE "0:"
    INDEX 01 00:37:48
  TRACK 48 AUDIO
    TITLE "2:cjc102_0805"
    INDEX 01 00:38:00
  TRACK 49 AUDIO
    TITLE "0:"
    INDEX 01 00:39:00
  TRACK 50 AUDIO
    TITLE "3:cjc102_0806"
    INDEX 01 00:39:58
  TRACK 51 AUDIO
    TITLE "0:"
    INDEX 01 00:41:00
  TRACK 52 AUDIO
    TITLE "2:cjc102_0807"
    INDEX 01 00:41:10
  TRACK 53 AUDIO
    TITLE "0:"
    INDEX 01 00:42:19
  TRACK 54 AUDIO
    TITLE "3:cjc102_0808"
    INDEX 01 00:43:03
  TRACK 55 AUDIO
    TITLE "0:"
    INDEX 01 00:44:09
  TRACK 56 AUDIO
    TITLE "2:cjc102_0809"
    INDEX 01 00:44:28
  TRACK 57 AUDIO
    TITLE "0:"
    INDEX 01 00:45:30
  TRACK 58 AUDIO
    TITLE "3:cjc102_0810"
    INDEX 01 00:46:27
  TRACK 59 AUDIO
    TITLE "0:"
    INDEX 01 00:47:42
  TRACK 60 AUDIO
    TITLE "2:cjc102_0811"
    INDEX 01 00:47:58
  TRACK 61 AUDIO
    TITLE "0:"
    INDEX 01 00:48:67
  TRACK 62 AUDIO
    TITLE "3:cjc102_0812"
    INDEX 01 00:49:43
  TRACK 63 AUDIO
    TITLE "0:"
    INDEX 01 00:50:62
  TRACK 64 AUDIO
    TITLE "2:cjc102_0813"
    INDEX 01 00:50:66
  TRACK 65 AUDIO
    TITLE "0:"
    INDEX 01 00:51:67
  TRACK 66 AUDIO
    TITLE "3:cjc102_0814"
    INDEX 01 00:52:65
  TRACK 67 AUDIO
    TITLE "0:"
    INDEX 01 00:53:70
  TRACK 68 AUDIO
    TITLE "2:cjc102_0815"
    INDEX 01 00:54:17
  TRACK 69 AUDIO
    TITLE "0:"
    INDEX 01 00:55:16
  TRACK 70 AUDIO
    TITLE "3:cjc102_0816"
    INDEX 01 00:56:02
  TRACK 71 AUDIO
    TITLE "0:"
    INDEX 01 00:57:15
  TRACK 72 AUDIO
    TITLE "2:cjc102_0817"
    INDEX 01 00:57:37
  TRACK 73 AUDIO
    TITLE "0:"
    INDEX 01 00:58:36
  TRACK 74 AUDIO
    TITLE "3:cjc102_0818"
    INDEX 01 00:59:36
  TRACK 75 AUDIO
    TITLE "0:"
    INDEX 01 01:00:53
  TRACK 76 AUDIO
    TITLE "2:cjc102_0819"
    INDEX 01 01:01:11
  TRACK 77 AUDIO
    TITLE "0:"
    INDEX 01 01:02:08
  TRACK 78 AUDIO
    TITLE "2:cjc102_0820"
    INDEX 01 01:02:69
  TRACK 79 AUDIO
    TITLE "0:"
    INDEX 01 01:03:69
  TRACK 80 AUDIO
    TITLE "3:cjc102_0821"
    INDEX 01 01:04:56
  TRACK 81 AUDIO
    TITLE "0:"
    INDEX 01 01:06:00
  TRACK 82 AUDIO
    TITLE "2:cjc102_0822"
    INDEX 01 01:06:14
  TRACK 83 AUDIO
    TITLE "0:"
    INDEX 01 01:07:17
  TRACK 84 AUDIO
    TITLE "2:cjc102_0823"
    INDEX 01 01:07:53
  TRACK 85 AUDIO
    TITLE "0:"
    INDEX 01 01:08:56
  TRACK 86 AUDIO
    TITLE "3:cjc102_0824"
    INDEX 01 01:09:38
  TRACK 87 AUDIO
    TITLE "0:"
    INDEX 01 01:10:57
  TRACK 88 AUDIO
    TITLE "2:cjc102_0825"
    INDEX 01 01:11:13
  TRACK 89 AUDIO
    TITLE "0:"
    INDEX 01 01:12:21
  TRACK 90 AUDIO
    TITLE "2:cjc102_0826"
    INDEX 01 01:12:46
  TRACK 91 AUDIO
    TITLE "0:"
    INDEX 01 01:13:55
  TRACK 92 AUDIO
    TITLE "3:cjc102_0827"
    INDEX 01 01:14:47
  TRACK 93 AUDIO
    TITLE "0:"
    INDEX 01 01:15:48
  TRACK 94 AUDIO
    TITLE "2:cjc102_0828"
    INDEX 01 01:15:72
  TRACK 95 AUDIO
    TITLE "0:"
    INDEX 01 01:17:08
  TRACK 96 AUDIO
    TITLE "2:cjc102_0829"
    INDEX 01 01:17:24
  TRACK 97 AUDIO
    TITLE "0:"
    INDEX 01 01:18:39
  TRACK 98 AUDIO
    TITLE "3:cjc102_0830"
    INDEX 01 01:19:19
  TRACK 99 AUDIO
    TITLE "0:"
    INDEX 01 01:20:44
  TRACK 100 AUDIO
    TITLE "2:cjc102_0831"
    INDEX 01 01:21:04
  TRACK 101 AUDIO
    TITLE "0:"
    INDEX 01 01:22:15
  TRACK 102 AUDIO
    TITLE "2:cjc102_0832"
    INDEX 01 01:22:33
  TRACK 103 AUDIO
    TITLE "0:"
    INDEX 01 01:23:34
  TRACK 104 AUDIO
    TITLE "3:cjc102_0833"
    INDEX 01 01:24:08
  TRACK 105 AUDIO
    TITLE "0:"
    INDEX 01 01:25:25
  TRACK 106 AUDIO
    TITLE "2:cjc102_0834"
    INDEX 01 01:26:05
  TRACK 107 AUDIO
    TITLE "0:"
    INDEX 01 01:27:08
  TRACK 108 AUDIO
    TITLE "2:cjc102_0835"
    INDEX 01 01:27:38
  TRACK 109 AUDIO
    TITLE "0:"
    INDEX 01 01:28:63
  TRACK 110 AUDIO
    TITLE "3:cjc102_0836"
    INDEX 01 01:29:58
  TRACK 111 AUDIO
    TITLE "0:"
    INDEX 01 01:31:08
  TRACK 112 AUDIO
    TITLE "2:cjc102_0837"
    INDEX 01 01:32:06
  TRACK 113 AUDIO
    TITLE "0:"
    INDEX 01 01:33:21
  TRACK 114 AUDIO
    TITLE "3:cjc102_0838"
    INDEX 01 01:34:28
  TRACK 115 AUDIO
    TITLE "0:"
    INDEX 01 01:35:53
  TRACK 116 AUDIO
    TITLE "2:cjc102_0839"
    INDEX 01 01:36:11
  TRACK 117 AUDIO
    TITLE "0:"
    INDEX 01 01:37:54
  TRACK 118 AUDIO
    TITLE "3:cjc102_0840"
    INDEX 01 01:38:53
  TRACK 119 AUDIO
    TITLE "0:"
    INDEX 01 01:39:70
  TRACK 120 AUDIO
    TITLE "2:cjc102_0841"
    INDEX 01 01:40:42
  TRACK 121 AUDIO
    TITLE "0:"
    INDEX 01 01:43:45
